<?xml version="1.0" encoding="iso-8859-1"?>
<!-- Generator: Adobe Illustrator 19.0.0, SVG Export Plug-In . SVG Version: 6.00 Build 0)  -->
<svg version="1.1" id="Layer_1" xmlns="http://www.w3.org/2000/svg" xmlns:xlink="http://www.w3.org/1999/xlink" x="0px" y="0px"
	 viewBox="0 0 512.002 512.002" style="enable-background:new 0 0 512.002 512.002;" xml:space="preserve">
<g>
	<path style="fill:#F4D853;" d="M444.371,197.861c-19.682-21.492-45.574-33.329-72.913-33.329s-53.231,11.837-72.913,33.329
		c-18.651,20.37-29.348,47.499-29.348,74.431c0,19.403-15.785,35.187-35.186,35.187h-12.749
		c13.484-17.326,21.545-39.07,21.545-62.676c0-56.386-45.876-102.261-102.261-102.261c-56.388,0-102.261,45.875-102.261,102.261
		c0,10.931,8.86,19.793,19.793,19.793c10.929,0,19.793-8.862,19.793-19.793c0-34.56,28.117-62.676,62.676-62.676
		s62.676,28.116,62.676,62.676s-28.117,62.676-62.676,62.676c-10.932,0-19.793,8.862-19.793,19.793s8.86,19.793,19.793,19.793
		c34.559,0,62.676,28.116,62.676,62.676s-28.117,62.676-62.676,62.676s-62.676-28.116-62.676-62.676
		c0-10.931-8.863-19.793-19.793-19.793c-10.932,0-19.793,8.862-19.793,19.793c0,56.386,45.874,102.261,102.261,102.261
		c56.385,0,102.261-45.875,102.261-102.261c0-23.606-8.061-45.35-21.545-62.676h12.749c41.229,0,74.771-33.543,74.771-74.772
		c0-36.317,29.286-68.175,62.676-68.175c33.387,0,62.676,31.858,62.676,68.175v137.449c0,34.56-28.117,62.676-62.676,62.676
		s-62.676-28.116-62.676-62.676c0-10.931-8.863-19.793-19.793-19.793c-10.932,0-19.793,8.862-19.793,19.793
		c0,56.386,45.874,102.261,102.261,102.261c56.385,0,102.261-45.875,102.261-102.261V272.292
		C473.72,245.361,463.022,218.232,444.371,197.861z"/>
	<path style="fill:#F4D853;" d="M272.343,71.151c5.213,0,10.319-2.111,14.001-5.794c3.68-3.695,5.791-8.788,5.791-13.999
		c0-5.213-2.111-10.305-5.791-13.987c-3.683-3.696-8.788-5.806-14.001-5.806c-5.211,0-10.304,2.111-13.987,5.806
		c-3.696,3.68-5.806,8.772-5.806,13.987c0,5.211,2.111,10.305,5.806,13.999C262.04,69.04,267.132,71.151,272.343,71.151z"/>
	<path style="fill:#F4D853;" d="M233.214,145.836c12.618,5.227,25.874,7.839,39.134,7.839c13.257,0,26.517-2.613,39.134-7.839
		c25.236-10.453,44.889-30.107,55.341-55.344c4.183-10.099-0.614-21.677-10.71-25.86c-10.105-4.184-21.677,0.614-25.862,10.71
		c-6.406,15.469-18.452,27.514-33.918,33.92c-15.469,6.406-32.503,6.409-47.971,0c-31.931-13.225-47.146-49.962-33.923-81.892
		c4.183-10.097-0.614-21.677-10.71-25.86c-10.105-4.183-21.679,0.614-25.862,10.713C156.291,64.318,181.121,124.258,233.214,145.836
		z"/>
</g>
<g>
	<path style="fill:#E9A440;" d="M444.371,197.861c-19.682-21.492-45.574-33.329-72.913-33.329s-53.231,11.837-72.913,33.329
		c-18.651,20.37-29.348,47.499-29.348,74.431c0,12.603-6.662,23.671-16.646,29.887v42.555c32.29-8.269,56.231-37.611,56.231-72.442
		c0-36.317,29.286-68.175,62.676-68.175c33.387,0,62.676,31.858,62.676,68.175v137.449c0,34.56-28.117,62.676-62.676,62.676
		s-62.676-28.116-62.676-62.676c0-10.931-8.863-19.793-19.793-19.793c-10.932,0-19.793,8.862-19.793,19.793
		c0,56.386,45.874,102.261,102.261,102.261c56.385,0,102.261-45.875,102.261-102.261V272.292
		C473.72,245.361,463.022,218.232,444.371,197.861z"/>
	<path style="fill:#E9A440;" d="M272.343,71.151c5.213,0,10.319-2.111,14.001-5.794c3.68-3.695,5.791-8.788,5.791-13.999
		c0-5.213-2.111-10.305-5.791-13.987c-3.683-3.696-8.788-5.806-14.001-5.806c-5.211,0-10.304,2.111-13.987,5.806
		c-3.696,3.68-5.806,8.772-5.806,13.987c0,5.211,2.111,10.305,5.806,13.999C262.04,69.04,267.132,71.151,272.343,71.151z"/>
	<path style="fill:#E9A440;" d="M311.483,145.836c25.236-10.453,44.889-30.107,55.341-55.344c4.183-10.099-0.614-21.677-10.71-25.86
		c-10.105-4.184-21.677,0.614-25.862,10.71c-6.406,15.469-18.452,27.514-33.918,33.92c-14.084,5.835-29.465,6.34-43.784,1.548
		v40.907c6.546,1.305,13.171,1.957,19.798,1.957C285.605,153.677,298.865,151.063,311.483,145.836z"/>
</g>
<g>
</g>
<g>
</g>
<g>
</g>
<g>
</g>
<g>
</g>
<g>
</g>
<g>
</g>
<g>
</g>
<g>
</g>
<g>
</g>
<g>
</g>
<g>
</g>
<g>
</g>
<g>
</g>
<g>
</g>
</svg>
