<?xml version="1.0" standalone="no"?>
<!DOCTYPE svg PUBLIC "-//W3C//DTD SVG 20010904//EN"
 "http://www.w3.org/TR/2001/REC-SVG-20010904/DTD/svg10.dtd">
<svg version="1.0" xmlns="http://www.w3.org/2000/svg"
 width="80.000000pt" height="80.000000pt" viewBox="0 0 80.000000 80.000000"
 preserveAspectRatio="xMidYMid meet">
<metadata>
Created by potrace 1.14, written by Peter Selinger 2001-2017
</metadata>
<g transform="translate(0.000000,80.000000) scale(0.100000,-0.100000)"
fill="#000000" stroke="none">
<path d="M235 741 c-7 -34 -18 -44 -60 -58 l-30 -10 40 -19 c29 -14 42 -28 49
-51 11 -41 22 -42 31 -4 7 35 20 47 58 56 35 9 34 22 -3 30 -32 7 -60 38 -60
67 0 29 -18 21 -25 -11z"/>
<path d="M398 585 c-124 -46 -199 -156 -194 -287 3 -106 54 -187 154 -245 40
-24 58 -27 127 -28 86 0 146 21 198 69 30 28 72 92 82 125 l7 24 -28 -20
c-139 -97 -315 -16 -323 149 -3 64 38 151 90 186 21 15 38 30 39 33 0 12 -116
7 -152 -6z"/>
<path d="M106 542 c-10 -20 -24 -32 -36 -32 -30 0 -24 -14 10 -27 20 -8 30
-18 30 -32 0 -30 14 -26 27 9 8 20 18 30 32 30 12 0 21 5 21 10 0 6 -9 10 -20
10 -14 0 -25 11 -34 32 l-14 32 -16 -32z"/>
</g>
</svg>
